<svg xmlns="http://www.w3.org/2000/svg" viewBox="0 0 960 720" role="img" aria-label="Chartermoment van Rotaract Gaasbeek">
  <rect width="960" height="720" fill="#EFE7DC"/>
  <path d="M0 0h960v240H0Z" fill="#E8DED1"/>
  <g fill="none" stroke="#8D6038" stroke-width="24" stroke-linecap="round">
    <path d="M78 190 245 40 420 190 620 32 895 220"/>
    <path d="M96 292h768"/>
  </g>
  <rect x="300" y="372" width="238" height="168" rx="8" fill="#FFFFFF" stroke="#D41367" stroke-width="12"/>
  <rect x="342" y="410" width="154" height="14" fill="#D41367"/>
  <rect x="342" y="448" width="154" height="12" fill="#AAB3BF"/>
  <rect x="342" y="478" width="112" height="12" fill="#AAB3BF"/>
  <g fill="#E7B08D">
    <circle cx="132" cy="306" r="44"/><circle cx="275" cy="322" r="40"/><circle cx="465" cy="304" r="43"/><circle cx="660" cy="315" r="42"/><circle cx="806" cy="306" r="44"/>
  </g>
  <g fill="#123C69">
    <path d="M70 350h124l30 220H38Z"/><path d="M610 356h110l34 214H578Z"/><path d="M746 350h124l52 220H714Z"/>
  </g>
  <path d="M234 364h96l36 206H202Z" fill="#F4E8D2"/>
  <path d="M412 348h110l52 222H372Z" fill="#D41367"/>
  <circle cx="682" cy="390" r="42" fill="#F3B23C" opacity="0.7"/>
  <path d="M0 610h960v110H0Z" fill="#D41367" opacity="0.16"/>
</svg>
