<svg xmlns="http://www.w3.org/2000/svg" viewBox="0 0 1800 1050" role="img" aria-label="Sfeerbeeld van Rotaract Gaasbeek met clubavond, marktstand en winterbar">
  <defs>
    <linearGradient id="sky" x1="0" y1="0" x2="1" y2="1">
      <stop offset="0" stop-color="#143C69"/>
      <stop offset="0.48" stop-color="#17212C"/>
      <stop offset="1" stop-color="#D41367"/>
    </linearGradient>
    <linearGradient id="light" x1="0" y1="0" x2="1" y2="1">
      <stop offset="0" stop-color="#FFF6E5"/>
      <stop offset="1" stop-color="#F3B23C"/>
    </linearGradient>
    <filter id="grain">
      <feTurbulence type="fractalNoise" baseFrequency="0.8" numOctaves="3" stitchTiles="stitch"/>
      <feColorMatrix type="saturate" values="0"/>
      <feComponentTransfer>
        <feFuncA type="table" tableValues="0 0.08"/>
      </feComponentTransfer>
    </filter>
  </defs>
  <rect width="1800" height="1050" fill="url(#sky)"/>
  <rect width="1800" height="1050" fill="#000" opacity="0.1" filter="url(#grain)"/>
  <path d="M0 760c265-130 520-168 765-114 303 67 542 42 745-76 118-68 216-95 290-81v561H0Z" fill="#111820" opacity="0.72"/>
  <path d="M1080 120h460l110 245H970Z" fill="#FFFFFF" opacity="0.13"/>
  <path d="M1140 150h340l68 160h-480Z" fill="#FFFFFF" opacity="0.18"/>
  <path d="M1095 342h530v302h-530Z" fill="#171126" opacity="0.82"/>
  <path d="M1128 372h464v230h-464Z" fill="#202C3D"/>
  <circle cx="1210" cy="474" r="34" fill="#D41367"/>
  <circle cx="1325" cy="450" r="24" fill="#38A6D9"/>
  <circle cx="1435" cy="492" r="30" fill="#F3B23C"/>
  <rect x="1170" y="635" width="400" height="82" rx="8" fill="#F3B23C"/>
  <rect x="1110" y="715" width="520" height="42" fill="#D41367"/>
  <path d="M220 272h620l58 154H160Z" fill="#F6F8FB" opacity="0.88"/>
  <rect x="190" y="424" width="680" height="324" rx="8" fill="#F6F8FB"/>
  <rect x="250" y="492" width="562" height="98" fill="#F7A7C8"/>
  <rect x="286" y="602" width="86" height="146" fill="#123C69"/>
  <rect x="400" y="606" width="86" height="142" fill="#123C69"/>
  <rect x="514" y="604" width="86" height="144" fill="#123C69"/>
  <rect x="628" y="606" width="86" height="142" fill="#123C69"/>
  <circle cx="330" cy="444" r="44" fill="#18212C"/>
  <circle cx="462" cy="442" r="42" fill="#18212C"/>
  <circle cx="596" cy="444" r="43" fill="#18212C"/>
  <circle cx="726" cy="442" r="42" fill="#18212C"/>
  <rect x="278" y="270" width="70" height="210" rx="35" fill="#E7B08D"/>
  <rect x="410" y="268" width="70" height="214" rx="35" fill="#B97954"/>
  <rect x="544" y="266" width="70" height="216" rx="35" fill="#F2C49D"/>
  <rect x="674" y="268" width="70" height="214" rx="35" fill="#C58B62"/>
  <path d="M760 234 920 60h40L798 260Z" fill="#7B5432"/>
  <path d="M900 265 1108 46h44L938 292Z" fill="#8D6038"/>
  <rect x="760" y="260" width="430" height="315" rx="8" fill="#EEE9E0" opacity="0.88"/>
  <rect x="805" y="402" width="330" height="88" rx="8" fill="#8A5634"/>
  <circle cx="860" cy="365" r="33" fill="#E7B08D"/>
  <circle cx="948" cy="362" r="33" fill="#F2C49D"/>
  <circle cx="1035" cy="365" r="33" fill="#C58B62"/>
  <circle cx="1112" cy="366" r="33" fill="#B97954"/>
  <rect x="827" y="496" width="84" height="72" fill="#123C69"/>
  <rect x="935" y="496" width="84" height="72" fill="#D41367"/>
  <rect x="1044" y="496" width="84" height="72" fill="#1A7C64"/>
  <path d="M0 824h1800v226H0Z" fill="#0D1117"/>
  <rect x="106" y="778" width="1086" height="54" fill="url(#light)"/>
  <rect x="126" y="835" width="190" height="42" fill="#D41367"/>
  <rect x="344" y="835" width="190" height="42" fill="#123C69"/>
  <rect x="562" y="835" width="190" height="42" fill="#1A7C64"/>
  <rect x="780" y="835" width="190" height="42" fill="#D41367"/>
  <circle cx="1228" cy="795" r="46" fill="#F2C49D"/>
  <circle cx="1332" cy="802" r="48" fill="#B97954"/>
  <circle cx="1436" cy="796" r="46" fill="#E7B08D"/>
  <circle cx="1540" cy="802" r="48" fill="#C58B62"/>
  <path d="M1180 844h405v206h-405Z" fill="#1B2635"/>
  <path d="M0 900c210 72 389 93 538 65 251-47 439-44 566 8 199 82 430 72 696-31v108H0Z" fill="#D41367" opacity="0.38"/>
</svg>
