<svg xmlns="http://www.w3.org/2000/svg" viewBox="0 0 1200 800" role="img" aria-label="Openluchtcinema illustratie">
  <defs>
    <linearGradient id="night" x1="0" y1="0" x2="1" y2="1">
      <stop offset="0" stop-color="#111820"/>
      <stop offset="0.58" stop-color="#123C69"/>
      <stop offset="1" stop-color="#D41367"/>
    </linearGradient>
  </defs>
  <rect width="1200" height="800" fill="url(#night)"/>
  <circle cx="1010" cy="110" r="54" fill="#F3B23C"/>
  <g fill="#FFFFFF" opacity="0.65">
    <circle cx="130" cy="80" r="4"/><circle cx="260" cy="138" r="3"/><circle cx="420" cy="76" r="5"/><circle cx="736" cy="126" r="4"/><circle cx="1112" cy="224" r="3"/>
  </g>
  <rect x="210" y="160" width="780" height="360" rx="8" fill="#F6F8FB"/>
  <rect x="248" y="198" width="704" height="284" fill="#18212C"/>
  <path d="M248 482 510 304l180 124 116-84 146 138Z" fill="#D41367" opacity="0.78"/>
  <circle cx="780" cy="286" r="44" fill="#F3B23C"/>
  <rect x="150" y="588" width="900" height="54" rx="27" fill="#FFFFFF" opacity="0.18"/>
  <g fill="#F6F8FB">
    <circle cx="250" cy="585" r="30"/><circle cx="340" cy="575" r="28"/><circle cx="430" cy="586" r="31"/><circle cx="520" cy="574" r="29"/><circle cx="610" cy="586" r="31"/><circle cx="700" cy="575" r="28"/><circle cx="790" cy="586" r="30"/><circle cx="880" cy="574" r="29"/>
  </g>
  <text x="120" y="720" fill="#FFFFFF" font-family="Arial, sans-serif" font-size="72" font-weight="800">Openluchtcinema</text>
  <text x="122" y="760" fill="#FFB7D4" font-family="Arial, sans-serif" font-size="34" font-weight="700">Zomervakantie</text>
</svg>
