<svg xmlns="http://www.w3.org/2000/svg" viewBox="0 0 960 720" role="img" aria-label="Winterbar van Rotaract Gaasbeek">
  <rect width="960" height="720" fill="#09111E"/>
  <path d="M80 142h800l68 190H12Z" fill="#1A2030"/>
  <path d="M126 170h708l40 126H86Z" fill="#111820"/>
  <rect x="96" y="302" width="768" height="290" rx="8" fill="#121827"/>
  <path d="M96 302h768v96H96Z" fill="#D41367" opacity="0.54"/>
  <g fill="#F3B23C">
    <circle cx="158" cy="100" r="16"/><circle cx="276" cy="82" r="14"/><circle cx="398" cy="102" r="16"/><circle cx="524" cy="84" r="14"/><circle cx="646" cy="102" r="16"/><circle cx="770" cy="82" r="14"/>
  </g>
  <path d="M140 104c88-58 178-58 270 0s184 58 278 0 176-58 264 0" fill="none" stroke="#F3B23C" stroke-width="5" opacity="0.85"/>
  <rect x="146" y="508" width="668" height="80" fill="#F3B23C"/>
  <rect x="170" y="588" width="620" height="42" fill="#D41367"/>
  <g fill="#E7B08D">
    <circle cx="252" cy="386" r="40"/><circle cx="388" cy="372" r="42"/><circle cx="532" cy="386" r="40"/><circle cx="680" cy="372" r="42"/>
  </g>
  <g fill="#2A3344">
    <path d="M200 428h104l28 142H172Z"/><path d="M334 420h108l30 150H304Z"/><path d="M480 428h104l28 142H452Z"/><path d="M626 420h108l30 150H596Z"/>
  </g>
  <g fill="#D41367">
    <rect x="246" y="462" width="24" height="64" rx="10"/><rect x="376" y="452" width="24" height="74" rx="10"/><rect x="520" y="462" width="24" height="64" rx="10"/><rect x="668" y="452" width="24" height="74" rx="10"/>
  </g>
  <circle cx="170" cy="358" r="26" fill="#38A6D9"/>
  <circle cx="796" cy="348" r="30" fill="#1A7C64"/>
  <circle cx="480" cy="324" r="26" fill="#F3B23C"/>
</svg>
